<svg id="svg" version="1.1" xmlns="http://www.w3.org/2000/svg" xmlns:xlink="http://www.w3.org/1999/xlink" width="400" height="384.4827586206897" viewBox="0, 0, 400,384.4827586206897"><g id="svgg"><path id="path0" d="M153.718 5.641 C 153.170 6.189,153.505 6.842,154.423 7.017 C 155.419 7.208,155.548 7.027,155.151 5.993 C 154.911 5.368,154.173 5.186,153.718 5.641 M148.666 7.287 C 148.328 7.835,148.759 8.462,149.474 8.462 C 149.811 8.462,150.004 8.191,149.932 7.820 C 149.782 7.048,149.014 6.724,148.666 7.287 M143.750 8.877 C 143.380 9.093,143.077 9.520,143.077 9.827 C 143.077 10.261,142.480 10.385,140.385 10.385 C 138.002 10.385,137.692 10.468,137.692 11.111 C 137.692 11.645,137.313 11.909,136.263 12.106 C 135.477 12.253,134.602 12.705,134.318 13.110 C 133.651 14.063,132.044 14.049,130.577 13.077 L 129.423 12.313 129.231 13.749 C 129.012 15.381,128.062 15.838,126.959 14.841 C 126.166 14.122,125.769 14.391,125.769 15.646 C 125.769 16.764,123.598 18.819,122.401 18.835 C 121.924 18.841,121.157 19.279,120.697 19.808 C 120.183 20.400,119.453 20.769,118.799 20.769 C 118.197 20.769,117.518 21.081,117.233 21.487 C 116.957 21.881,116.194 22.322,115.539 22.466 C 114.883 22.610,113.671 23.387,112.846 24.193 C 112.021 24.999,110.894 25.768,110.341 25.901 C 109.788 26.033,108.638 26.819,107.785 27.647 C 106.932 28.475,105.733 29.262,105.122 29.396 C 104.510 29.531,102.977 30.630,101.716 31.840 C 100.455 33.049,99.250 34.054,99.038 34.074 C 98.078 34.161,96.538 34.727,96.538 34.992 C 96.538 35.525,90.755 41.154,90.207 41.154 C 89.911 41.154,89.614 41.543,89.546 42.019 C 89.467 42.575,89.114 42.929,88.558 43.008 C 88.002 43.087,87.692 43.396,87.692 43.873 C 87.692 44.350,87.427 44.615,86.950 44.615 C 86.473 44.615,86.163 44.925,86.084 45.481 C 85.990 46.147,85.670 46.374,84.694 46.468 C 83.155 46.616,79.226 50.321,79.072 51.770 C 78.961 52.805,78.614 53.269,77.949 53.269 C 77.702 53.269,77.478 53.486,77.452 53.750 C 77.425 54.014,77.382 54.404,77.356 54.615 C 77.329 54.827,76.962 55.000,76.538 55.000 C 76.093 55.000,75.769 55.256,75.769 55.610 C 75.769 55.945,74.212 57.729,72.308 59.574 C 69.580 62.218,68.846 63.156,68.846 64.000 C 68.846 64.749,68.614 65.133,68.077 65.273 C 67.654 65.384,67.308 65.627,67.308 65.814 C 67.308 66.354,62.941 70.769,62.406 70.769 C 61.948 70.769,61.735 71.697,61.856 73.163 C 61.886 73.528,61.567 74.010,61.148 74.234 C 60.648 74.501,60.385 75.039,60.385 75.791 C 60.385 76.643,60.136 77.053,59.423 77.378 C 58.894 77.619,58.462 78.042,58.462 78.317 C 58.462 78.593,58.115 79.004,57.692 79.231 C 57.179 79.506,56.923 80.036,56.923 80.827 C 56.923 81.939,54.697 84.615,53.771 84.615 C 53.601 84.615,53.462 85.207,53.462 85.929 C 53.462 86.902,53.201 87.433,52.459 87.974 C 51.799 88.455,51.436 89.102,51.397 89.864 C 51.365 90.502,51.038 91.325,50.669 91.693 C 50.301 92.061,50.000 92.773,50.000 93.275 C 50.000 93.777,49.680 94.413,49.289 94.690 C 48.898 94.966,48.458 95.841,48.310 96.635 C 48.109 97.718,47.855 98.077,47.290 98.077 C 46.628 98.077,46.538 98.351,46.538 100.388 C 46.538 102.224,46.380 102.835,45.769 103.358 C 45.346 103.721,45.000 104.420,45.000 104.912 C 45.000 105.403,44.567 106.207,44.038 106.697 C 43.504 107.192,43.077 108.018,43.077 108.555 C 43.077 109.796,42.189 110.525,40.964 110.291 C 39.844 110.077,39.778 110.282,40.594 111.447 C 41.760 113.111,41.777 115.969,40.627 117.035 C 39.789 117.812,39.615 118.310,39.615 119.934 C 39.615 121.502,39.461 121.979,38.846 122.308 C 38.197 122.655,38.077 123.113,38.077 125.231 C 38.077 127.899,37.629 129.231,36.732 129.231 C 36.308 129.231,36.159 129.991,36.073 132.596 L 35.962 135.962 34.531 136.080 L 33.100 136.199 33.857 137.613 C 35.562 140.793,34.804 146.538,32.679 146.538 C 31.285 146.538,31.089 146.859,31.955 147.724 C 32.957 148.726,33.097 190.778,32.103 192.093 C 31.282 193.179,31.397 193.414,32.729 193.376 C 34.498 193.326,34.682 193.925,34.489 199.113 C 34.319 203.678,34.336 203.807,35.138 203.921 C 36.231 204.077,36.580 209.484,35.594 210.990 C 34.789 212.217,34.827 212.308,36.140 212.308 C 38.166 212.308,38.722 215.764,37.094 218.247 C 36.486 219.176,36.491 219.182,37.953 219.302 C 39.666 219.443,40.199 221.168,39.065 222.898 C 38.212 224.200,38.307 224.669,39.368 224.403 C 40.909 224.016,41.499 225.018,41.262 227.624 C 41.065 229.806,41.088 229.878,41.971 229.843 C 42.738 229.813,42.905 230.018,43.009 231.115 C 43.082 231.878,43.481 232.704,43.967 233.098 C 44.683 233.677,44.784 234.098,44.685 236.087 C 44.578 238.252,44.628 238.410,45.458 238.528 C 46.120 238.622,46.379 238.944,46.476 239.795 C 46.547 240.422,47.023 241.323,47.534 241.796 C 48.044 242.269,48.462 243.070,48.462 243.576 C 48.462 244.082,48.808 244.809,49.231 245.192 C 49.654 245.575,50.000 246.375,50.000 246.969 C 50.000 247.656,50.280 248.200,50.769 248.462 C 51.209 248.697,51.538 249.267,51.538 249.792 C 51.538 250.297,51.971 251.224,52.500 251.853 C 53.029 252.481,53.462 253.438,53.462 253.979 C 53.462 254.519,53.730 255.112,54.058 255.295 C 54.385 255.479,54.724 256.184,54.810 256.862 C 55.001 258.377,55.273 258.846,55.958 258.846 C 56.249 258.846,56.594 259.183,56.725 259.596 C 56.855 260.008,57.300 260.452,57.712 260.583 C 58.224 260.746,58.462 261.168,58.462 261.919 C 58.462 262.707,58.950 263.504,60.192 264.747 C 61.200 265.754,61.923 266.833,61.923 267.328 C 61.923 267.823,62.647 268.902,63.654 269.909 C 64.606 270.861,65.385 271.835,65.385 272.075 C 65.385 272.314,65.774 272.681,66.250 272.890 C 66.807 273.134,67.161 273.673,67.244 274.402 C 67.334 275.186,68.060 276.194,69.600 277.672 C 71.267 279.271,71.891 280.170,72.084 281.250 C 72.226 282.043,72.482 282.692,72.653 282.692 C 72.824 282.692,75.542 285.301,78.694 288.488 C 81.845 291.676,84.643 294.489,84.912 294.738 C 87.020 296.698,88.077 297.817,88.077 298.089 C 88.077 298.266,88.423 298.520,88.846 298.654 C 89.269 298.788,89.615 299.150,89.615 299.459 C 89.615 300.135,91.293 300.839,92.135 300.516 C 92.540 300.361,92.809 300.554,92.952 301.104 C 93.070 301.554,93.340 301.923,93.552 301.923 C 93.764 301.923,95.017 303.024,96.336 304.370 C 98.104 306.173,99.104 306.886,100.137 307.080 C 101.182 307.276,101.538 307.534,101.538 308.094 C 101.538 308.508,101.763 308.846,102.037 308.846 C 102.312 308.846,103.205 309.531,104.022 310.368 C 104.839 311.204,106.042 312.005,106.696 312.146 C 107.375 312.293,108.570 313.126,109.481 314.086 C 111.330 316.035,112.280 316.185,113.941 314.787 C 114.583 314.247,115.359 313.902,115.665 314.019 C 116.611 314.382,116.963 313.841,116.350 312.966 C 115.438 311.663,115.563 307.827,116.538 307.218 C 117.136 306.845,117.308 306.321,117.308 304.867 C 117.308 303.432,117.532 302.729,118.269 301.853 C 118.798 301.224,119.231 300.303,119.231 299.805 C 119.231 299.159,119.479 298.864,120.096 298.777 C 120.856 298.669,120.945 298.466,120.828 297.115 C 120.657 295.143,120.553 295.000,119.285 295.000 C 118.060 295.000,117.308 294.377,117.308 293.362 C 117.308 292.943,117.134 292.754,116.887 292.907 C 116.650 293.054,114.957 291.613,112.997 289.596 C 110.201 286.719,109.311 286.026,108.417 286.026 C 107.807 286.026,107.286 285.881,107.260 285.705 C 107.233 285.529,107.190 285.168,107.163 284.904 C 107.137 284.639,106.899 284.401,106.635 284.375 C 106.370 284.349,105.981 284.305,105.769 284.279 C 105.558 284.252,105.385 283.885,105.385 283.462 C 105.385 282.949,105.128 282.692,104.615 282.692 C 104.192 282.692,103.825 282.519,103.798 282.308 C 103.772 282.096,103.728 281.707,103.702 281.442 C 103.675 281.178,103.438 280.940,103.173 280.913 C 102.909 280.887,102.519 280.844,102.308 280.817 C 102.096 280.791,101.923 280.423,101.923 280.000 C 101.923 279.496,101.667 279.231,101.181 279.231 C 100.703 279.231,100.394 278.922,100.315 278.365 C 100.248 277.889,99.976 277.478,99.712 277.452 C 99.447 277.425,99.058 277.382,98.846 277.356 C 98.635 277.329,98.462 276.962,98.462 276.538 C 98.462 276.026,98.205 275.769,97.692 275.769 C 97.269 275.769,96.901 275.596,96.875 275.385 C 96.849 275.173,96.805 274.784,96.779 274.519 C 96.752 274.255,96.471 274.038,96.154 274.038 C 95.837 274.038,95.406 273.649,95.197 273.173 C 94.988 272.697,94.512 272.308,94.140 272.308 C 93.731 272.308,93.462 272.019,93.462 271.580 C 93.462 271.125,93.102 270.762,92.500 270.611 C 91.741 270.421,91.538 270.126,91.538 269.214 C 91.538 268.297,91.016 267.549,89.004 265.586 C 87.611 264.226,86.574 262.945,86.702 262.739 C 86.989 262.274,86.161 260.385,85.669 260.385 C 85.170 260.385,83.077 258.096,83.077 257.551 C 83.077 257.306,82.688 256.935,82.212 256.726 C 81.670 256.488,81.274 255.904,81.154 255.166 C 81.033 254.422,80.357 253.432,79.327 252.489 C 78.165 251.426,77.692 250.688,77.692 249.939 C 77.692 249.340,77.405 248.724,77.028 248.512 C 76.650 248.301,76.337 247.630,76.304 246.959 C 76.260 246.096,75.766 245.327,74.468 244.101 C 73.404 243.096,72.692 242.084,72.692 241.578 C 72.692 241.113,72.260 240.331,71.731 239.841 C 71.132 239.286,70.769 238.530,70.769 237.837 C 70.769 237.140,70.481 236.544,70.000 236.243 C 69.572 235.976,69.231 235.346,69.231 234.824 C 69.231 234.308,68.798 233.419,68.269 232.848 C 67.740 232.278,67.308 231.358,67.308 230.806 C 67.308 230.217,66.989 229.601,66.538 229.320 C 66.111 229.053,65.769 228.423,65.769 227.901 C 65.769 227.385,65.326 226.484,64.784 225.899 C 63.937 224.986,63.812 224.535,63.897 222.706 C 63.963 221.278,63.844 220.561,63.536 220.529 C 63.284 220.502,62.904 220.459,62.692 220.433 C 62.101 220.359,62.237 217.549,62.872 216.708 C 63.626 215.712,63.668 214.734,62.931 215.346 C 61.078 216.884,59.689 214.029,61.136 211.657 L 61.885 210.429 60.462 210.311 L 59.038 210.192 58.925 207.621 C 58.823 205.303,58.728 205.037,57.964 204.928 C 56.855 204.771,56.523 201.245,57.479 199.786 C 58.266 198.585,58.239 198.462,57.192 198.462 C 55.374 198.462,54.457 192.912,55.949 190.939 C 56.840 189.762,56.660 189.346,55.342 189.540 C 54.583 189.651,54.019 189.521,53.800 189.185 C 53.243 188.330,53.467 180.350,54.082 179.154 C 54.716 177.919,54.775 177.164,54.209 177.514 C 53.985 177.652,53.378 177.658,52.859 177.528 L 51.915 177.291 52.015 159.511 L 52.115 141.731 53.558 141.611 C 55.214 141.474,55.251 141.402,54.292 140.182 C 53.542 139.229,53.098 131.087,53.745 130.154 C 54.196 129.504,55.120 129.298,55.865 129.681 C 56.711 130.116,56.756 129.359,55.949 128.292 C 54.926 126.939,55.164 121.239,56.250 121.084 C 57.021 120.975,57.103 120.772,57.006 119.231 C 56.819 116.291,57.127 115.664,58.671 115.844 C 60.151 116.017,60.276 115.779,59.403 114.446 C 58.475 113.029,58.774 109.076,59.820 108.926 C 60.523 108.826,60.589 108.585,60.471 106.560 C 60.356 104.600,60.448 104.230,61.174 103.722 C 61.632 103.400,62.125 102.561,62.268 101.857 C 62.451 100.956,62.768 100.542,63.337 100.460 C 64.076 100.352,64.130 100.156,63.956 98.200 C 63.783 96.262,63.860 95.970,64.767 95.129 C 65.376 94.564,65.769 93.787,65.769 93.147 C 65.769 92.568,66.115 91.798,66.538 91.435 C 66.962 91.073,67.308 90.369,67.308 89.871 C 67.308 89.373,67.637 88.668,68.039 88.304 C 68.441 87.940,68.881 87.050,69.017 86.326 C 69.153 85.600,69.602 84.829,70.017 84.607 C 70.464 84.367,70.769 83.803,70.769 83.215 C 70.769 82.671,71.202 81.712,71.731 81.084 C 72.260 80.455,72.692 79.528,72.692 79.022 C 72.692 78.508,73.020 77.929,73.437 77.705 C 73.887 77.465,74.230 76.811,74.303 76.057 C 74.384 75.212,74.696 74.688,75.265 74.438 C 75.728 74.235,76.187 73.759,76.286 73.381 C 76.385 73.002,76.786 72.691,77.176 72.690 C 77.726 72.689,77.903 72.360,77.967 71.215 C 78.028 70.131,78.413 69.345,79.425 68.240 C 80.182 67.414,80.902 66.304,81.025 65.773 C 81.148 65.242,81.995 64.077,82.907 63.184 C 84.070 62.044,84.601 61.184,84.686 60.299 C 84.780 59.330,85.008 59.010,85.673 58.916 C 86.149 58.848,86.538 58.535,86.538 58.221 C 86.538 57.620,94.063 50.000,94.656 50.000 C 94.845 50.000,95.000 49.746,95.000 49.437 C 95.000 49.127,95.334 48.694,95.743 48.475 C 96.518 48.061,97.146 46.715,96.975 45.836 C 96.920 45.555,97.232 45.232,97.669 45.118 C 98.105 45.004,98.462 44.667,98.462 44.369 C 98.462 44.071,98.871 43.672,99.371 43.482 C 99.870 43.291,100.373 42.777,100.488 42.337 C 100.603 41.898,100.973 41.538,101.310 41.538 C 101.647 41.538,101.923 41.275,101.923 40.952 C 101.923 40.629,102.356 40.201,102.885 40.000 C 103.413 39.799,103.846 39.354,103.846 39.012 C 103.846 38.670,104.176 38.303,104.580 38.198 C 104.983 38.092,105.400 37.675,105.506 37.270 C 105.622 36.827,106.166 36.440,106.873 36.298 C 107.672 36.139,109.339 34.802,112.081 32.122 C 114.875 29.392,116.484 28.107,117.317 27.941 C 118.129 27.778,119.274 26.889,120.851 25.196 C 122.450 23.480,123.469 22.692,124.092 22.692 C 124.591 22.692,125.389 22.303,125.865 21.827 C 126.341 21.351,126.990 20.961,127.307 20.961 C 127.624 20.961,127.884 20.622,127.884 20.209 C 127.884 19.668,128.240 19.384,129.150 19.197 C 129.847 19.054,130.734 18.650,131.121 18.299 C 131.509 17.947,131.978 17.696,132.163 17.739 C 132.777 17.884,134.615 17.231,134.615 16.869 C 134.615 16.028,137.316 13.846,138.356 13.846 C 139.014 13.846,139.617 13.548,139.911 13.077 C 140.219 12.584,140.808 12.308,141.551 12.308 C 142.435 12.308,142.798 12.078,143.077 11.346 C 143.370 10.576,143.708 10.385,144.775 10.385 C 146.364 10.385,146.934 9.702,145.947 8.980 C 145.110 8.368,144.660 8.347,143.750 8.877 M170.495 21.038 C 170.141 21.167,170.132 21.413,170.458 22.047 C 170.695 22.508,171.010 23.144,171.158 23.462 C 171.360 23.897,172.363 24.086,175.233 24.231 C 178.941 24.418,179.042 24.448,179.167 25.385 C 179.344 26.703,179.846 27.145,180.527 26.580 C 181.705 25.602,185.945 26.199,186.079 27.361 C 186.241 28.763,185.376 28.868,171.154 29.174 C 159.423 29.427,157.308 29.259,157.308 28.079 C 157.308 27.880,157.056 27.813,156.749 27.931 C 156.299 28.104,156.279 28.288,156.650 28.882 C 157.608 30.416,156.617 30.964,152.934 30.938 C 149.277 30.912,149.190 30.974,150.577 32.622 C 151.106 33.251,151.538 34.048,151.538 34.395 C 151.538 35.216,152.442 35.545,153.356 35.056 C 154.364 34.517,154.959 35.005,155.070 36.462 C 155.122 37.144,155.257 37.647,155.371 37.581 C 158.528 35.727,160.385 35.984,160.385 38.272 L 160.385 39.638 161.464 38.840 C 162.383 38.161,163.000 38.059,165.599 38.156 L 168.654 38.269 168.773 39.712 L 168.893 41.154 171.540 41.154 C 173.441 41.154,174.545 40.947,175.459 40.421 C 176.742 39.683,178.065 39.816,178.637 40.742 C 179.071 41.444,185.025 41.282,184.754 40.576 C 184.632 40.258,184.641 39.566,184.774 39.038 L 185.015 38.077 195.562 38.077 C 206.065 38.077,206.113 38.073,206.717 37.212 C 207.291 36.395,207.276 36.335,206.451 36.139 C 205.807 35.986,205.546 35.611,205.458 34.716 C 205.312 33.224,203.117 31.154,201.681 31.154 C 201.026 31.154,200.631 30.901,200.499 30.397 C 200.391 29.981,199.974 29.537,199.573 29.410 C 199.173 29.283,198.666 28.844,198.448 28.435 C 198.200 27.974,197.644 27.692,196.977 27.692 C 196.335 27.692,195.548 27.314,195.020 26.752 C 194.534 26.234,193.595 25.758,192.933 25.694 C 191.965 25.600,191.737 25.408,191.762 24.708 C 191.791 23.893,191.677 23.853,189.914 24.055 C 186.953 24.393,185.291 23.234,186.554 21.712 C 187.203 20.930,184.331 20.957,183.292 21.743 C 182.065 22.671,172.813 22.547,171.756 21.587 C 171.319 21.191,170.751 20.944,170.495 21.038 M191.609 28.654 C 192.237 29.183,193.171 29.615,193.683 29.615 C 194.731 29.615,194.964 30.553,194.007 30.920 C 192.658 31.438,187.377 31.168,186.758 30.549 C 184.733 28.524,189.323 26.730,191.609 28.654 M127.308 44.907 C 125.819 45.171,125.353 46.923,126.772 46.923 C 127.103 46.923,127.308 47.336,127.308 48.003 C 127.308 49.573,139.748 62.023,141.602 62.308 C 142.427 62.435,142.923 62.762,143.061 63.269 C 143.175 63.692,143.521 64.093,143.828 64.161 C 144.136 64.228,144.621 64.617,144.908 65.026 C 145.210 65.458,145.877 65.769,146.498 65.769 C 147.284 65.769,147.966 66.225,149.072 67.490 C 150.284 68.875,150.827 69.212,151.863 69.220 C 152.820 69.228,153.200 69.427,153.350 70.000 C 153.520 70.648,153.875 70.769,155.607 70.769 C 157.203 70.769,157.831 70.951,158.419 71.581 C 158.835 72.028,159.744 72.510,160.439 72.652 C 161.231 72.814,161.779 73.192,161.909 73.667 C 162.085 74.312,162.455 74.423,164.423 74.423 C 166.523 74.423,166.742 74.501,166.854 75.288 C 166.966 76.083,167.178 76.154,169.436 76.154 C 171.477 76.154,171.964 76.281,172.295 76.900 C 172.558 77.391,173.187 77.687,174.136 77.765 C 175.293 77.861,175.601 78.055,175.700 78.750 C 175.819 79.590,175.966 79.649,178.250 79.768 C 178.663 79.790,179.095 80.154,179.212 80.577 C 179.360 81.118,179.816 81.385,180.751 81.477 C 182.190 81.619,184.049 82.865,184.429 83.942 C 184.576 84.356,185.235 84.705,186.146 84.851 C 187.148 85.011,187.687 85.322,187.815 85.813 C 187.925 86.232,188.345 86.538,188.810 86.538 C 189.277 86.538,189.615 86.786,189.615 87.127 C 189.615 88.031,190.667 88.232,191.734 87.533 C 193.075 86.655,192.930 86.220,191.250 86.081 L 189.808 85.962 189.820 82.850 C 189.828 80.570,190.008 79.468,190.493 78.729 C 191.347 77.425,191.334 77.380,190.190 77.599 C 188.965 77.833,188.077 77.103,188.077 75.862 C 188.077 75.326,187.650 74.500,187.115 74.005 C 186.530 73.462,186.154 72.692,186.154 72.034 C 186.154 71.371,185.857 70.769,185.385 70.474 C 184.897 70.169,184.615 69.577,184.615 68.856 C 184.615 68.113,184.349 67.577,183.846 67.308 C 183.423 67.081,183.077 66.568,183.077 66.167 C 183.077 65.704,182.761 65.393,182.212 65.315 C 181.558 65.222,181.318 64.900,181.230 63.995 C 181.082 62.478,173.699 55.000,172.349 55.000 C 171.887 55.000,170.788 54.308,169.908 53.462 C 169.027 52.615,168.029 51.923,167.690 51.923 C 167.350 51.923,166.486 51.490,165.769 50.962 C 165.052 50.433,164.073 50.000,163.593 50.000 C 163.112 50.000,162.534 49.654,162.308 49.231 C 161.966 48.593,161.502 48.462,159.592 48.462 C 157.489 48.462,157.257 48.378,156.923 47.500 C 156.512 46.418,154.656 46.140,153.902 47.048 C 153.315 47.755,154.087 48.462,155.448 48.462 C 156.118 48.462,156.664 48.746,156.923 49.231 C 157.182 49.715,157.728 50.000,158.398 50.000 C 159.632 50.000,160.385 50.621,160.385 51.638 C 160.385 52.040,160.562 52.244,160.789 52.103 C 161.255 51.815,163.836 54.183,163.842 54.904 C 163.844 55.168,164.236 55.411,164.712 55.443 C 165.188 55.475,165.790 55.521,166.051 55.544 C 166.729 55.603,177.576 66.335,177.859 67.225 C 178.470 69.153,176.656 69.970,175.542 68.269 C 175.195 67.740,174.599 67.308,174.217 67.308 C 173.835 67.308,172.758 66.543,171.823 65.608 C 170.758 64.544,169.706 63.862,169.004 63.782 C 168.289 63.700,167.748 63.341,167.505 62.788 C 167.296 62.313,166.908 61.923,166.643 61.923 C 166.377 61.923,165.944 61.577,165.680 61.154 C 165.388 60.687,164.783 60.385,164.139 60.385 C 163.421 60.385,162.563 59.885,161.487 58.840 C 160.611 57.991,159.443 57.191,158.890 57.062 C 158.337 56.933,157.488 56.416,157.004 55.914 C 156.471 55.361,155.678 55.000,154.998 55.000 C 154.267 55.000,153.729 54.731,153.462 54.231 C 153.195 53.732,152.656 53.462,151.931 53.462 C 151.249 53.462,150.603 53.162,150.274 52.692 C 149.970 52.258,149.167 51.856,148.435 51.771 C 147.662 51.681,146.917 51.291,146.598 50.810 C 146.173 50.170,145.665 50.000,144.180 50.000 C 142.776 50.000,142.133 49.805,141.642 49.231 C 141.279 48.808,140.664 48.462,140.274 48.462 C 138.927 48.462,138.077 47.712,138.077 46.525 C 138.077 45.250,137.840 45.152,136.753 45.974 C 136.296 46.320,135.142 46.538,133.773 46.538 C 131.592 46.538,131.351 46.391,131.499 45.145 C 131.550 44.708,129.187 44.573,127.308 44.907 M150.592 45.134 C 149.780 45.727,150.092 46.538,151.132 46.538 C 151.575 46.538,151.901 46.184,152.017 45.577 C 152.224 44.496,151.691 44.330,150.592 45.134 M256.840 73.169 C 256.746 76.562,256.638 77.124,256.058 77.235 C 255.547 77.333,255.382 77.102,255.373 76.278 C 255.361 75.103,253.463 72.692,252.550 72.692 C 251.803 72.692,251.550 73.914,251.544 77.555 C 251.538 80.840,251.367 81.154,249.584 81.154 C 248.708 81.154,248.673 81.469,249.435 82.477 C 250.798 84.279,249.957 90.347,248.472 89.430 C 248.305 89.326,248.158 89.933,248.146 90.779 C 248.133 91.724,247.819 92.706,247.332 93.326 C 246.895 93.881,246.538 94.650,246.538 95.035 C 246.538 95.420,245.760 96.478,244.809 97.387 C 243.633 98.510,243.080 99.357,243.078 100.034 C 243.077 100.730,242.561 101.480,241.357 102.534 C 239.738 103.950,239.636 104.156,239.626 106.036 C 239.618 107.533,239.437 108.159,238.905 108.536 C 238.514 108.812,238.073 109.688,237.926 110.481 C 237.660 111.910,237.347 112.113,235.673 111.943 C 234.849 111.859,234.789 112.807,235.577 113.462 C 236.516 114.241,236.370 118.319,235.385 118.846 C 234.789 119.165,234.615 119.651,234.615 121.000 C 234.615 123.354,234.090 124.231,232.679 124.231 C 231.365 124.231,231.328 124.321,232.132 125.549 C 232.570 126.217,232.696 127.249,232.613 129.478 L 232.500 132.500 231.069 132.619 L 229.638 132.737 230.396 134.151 C 232.186 137.492,231.278 143.411,229.041 142.983 C 227.886 142.762,227.589 145.270,228.664 146.162 C 229.725 147.043,229.308 158.231,228.209 158.387 C 227.445 158.496,227.393 158.681,227.555 160.706 C 227.713 162.695,227.637 162.987,226.750 163.758 C 226.188 164.247,225.769 165.021,225.769 165.572 C 225.769 166.484,218.511 174.231,217.656 174.231 C 217.483 174.231,217.227 174.880,217.085 175.673 C 216.914 176.627,216.322 177.608,215.336 178.572 C 214.437 179.451,213.846 180.389,213.846 180.937 C 213.846 181.802,211.476 184.615,210.748 184.615 C 210.567 184.615,210.302 185.264,210.159 186.058 C 210.015 186.851,209.575 187.810,209.180 188.188 C 208.785 188.566,208.462 189.389,208.462 190.015 C 208.462 190.897,208.288 191.154,207.692 191.154 C 207.269 191.154,206.923 191.401,206.923 191.704 C 206.923 192.419,195.875 203.462,195.160 203.462 C 194.861 203.462,194.615 203.808,194.615 204.231 C 194.615 204.824,194.359 205.000,193.496 205.000 C 192.173 205.000,174.231 222.547,174.231 223.841 C 174.231 225.062,173.792 225.769,173.036 225.769 C 172.635 225.769,172.308 226.029,172.308 226.346 C 172.308 226.859,167.030 232.298,165.788 233.065 C 165.521 233.230,165.260 233.911,165.207 234.578 C 165.134 235.505,164.508 236.380,162.556 238.285 C 160.121 240.661,159.828 241.105,159.971 242.209 C 160.005 242.471,159.333 243.330,158.478 244.116 C 157.437 245.073,156.923 245.871,156.923 246.532 C 156.923 247.204,156.371 248.039,155.192 249.148 C 154.028 250.243,153.462 251.094,153.462 251.747 C 153.462 252.703,151.215 255.385,150.415 255.385 C 150.206 255.385,149.921 256.034,149.782 256.827 C 149.643 257.620,149.319 258.442,149.060 258.654 C 148.802 258.865,148.481 259.594,148.347 260.273 C 148.129 261.371,146.081 263.846,145.389 263.846 C 144.933 263.846,144.240 265.731,144.473 266.338 C 144.601 266.671,144.433 267.017,144.076 267.154 C 143.723 267.290,143.354 268.039,143.216 268.902 C 143.072 269.801,142.684 270.568,142.256 270.797 C 141.848 271.015,141.538 271.598,141.538 272.147 C 141.538 272.684,141.111 273.510,140.577 274.005 C 139.950 274.586,139.615 275.310,139.615 276.088 C 139.615 276.887,139.361 277.417,138.846 277.692 C 138.390 277.936,138.077 278.498,138.077 279.070 C 138.077 279.607,137.649 280.433,137.115 280.928 C 136.484 281.513,136.154 282.233,136.154 283.025 C 136.154 284.055,136.013 284.231,135.192 284.231 C 134.253 284.231,133.938 285.178,134.202 287.212 C 134.258 287.645,133.758 287.861,132.981 287.738 C 132.822 287.713,132.692 288.811,132.692 290.179 C 132.692 292.272,132.571 292.730,131.923 293.077 C 131.434 293.339,131.154 293.882,131.154 294.569 C 131.154 295.164,130.818 295.954,130.407 296.326 C 129.938 296.751,129.566 297.762,129.404 299.055 C 129.246 300.326,128.870 301.361,128.420 301.768 C 128.020 302.131,127.692 302.923,127.692 303.529 C 127.692 304.899,126.165 305.807,125.204 305.009 C 124.390 304.335,124.398 305.288,125.215 306.455 C 126.385 308.125,125.817 310.172,124.146 310.311 L 122.715 310.430 123.473 311.844 C 124.563 313.877,124.477 316.173,123.269 317.308 C 122.512 318.019,122.308 318.590,122.308 319.990 C 122.308 321.966,121.822 322.692,120.500 322.692 C 119.479 322.692,119.416 322.974,120.205 324.016 C 121.875 326.225,120.132 330.777,118.222 329.192 C 117.478 328.574,117.518 329.376,118.290 330.554 C 118.701 331.182,118.851 332.164,118.770 333.713 L 118.654 335.962 117.214 336.154 L 115.774 336.346 116.538 337.500 C 117.805 339.413,117.525 343.077,116.113 343.077 C 115.415 343.077,115.358 343.225,115.211 345.445 C 115.187 345.796,113.850 347.397,112.238 349.003 C 109.175 352.056,108.187 352.477,106.708 351.358 C 105.547 350.480,105.059 350.661,104.928 352.019 C 104.731 354.067,102.201 353.907,101.923 351.829 L 101.731 350.390 100.577 351.154 C 98.603 352.461,97.893 352.188,94.559 348.836 C 91.249 345.508,90.621 343.811,92.596 343.531 C 93.425 343.413,93.714 342.535,93.483 340.836 C 93.445 340.555,93.734 340.241,94.126 340.139 C 94.518 340.036,95.004 339.574,95.207 339.111 C 95.547 338.338,95.890 338.260,99.423 338.157 C 104.758 338.001,106.035 338.549,104.931 340.522 C 104.658 341.009,104.742 341.154,105.294 341.154 C 106.006 341.154,107.308 339.037,107.308 337.880 C 107.308 336.937,99.626 329.576,98.500 329.439 C 97.950 329.373,97.370 329.299,97.212 329.275 C 97.053 329.251,96.923 328.841,96.923 328.365 L 96.924 327.500 89.356 327.612 C 81.817 327.724,81.786 327.728,80.886 328.699 C 80.175 329.467,79.751 329.622,78.887 329.432 C 77.613 329.152,75.769 329.530,75.769 330.071 C 75.769 330.676,73.573 332.692,72.914 332.692 C 72.581 332.692,72.308 332.971,72.308 333.311 C 72.308 333.651,71.539 334.646,70.599 335.522 C 69.446 336.598,68.853 337.490,68.773 338.269 C 68.689 339.080,68.425 339.456,67.885 339.533 C 67.148 339.639,67.115 339.937,67.115 346.649 C 67.115 353.328,67.151 353.664,67.885 353.862 C 68.512 354.031,68.676 354.452,68.772 356.138 C 68.879 358.001,69.047 358.349,70.461 359.642 C 71.572 360.657,72.059 361.431,72.126 362.290 C 72.243 363.773,72.280 363.813,73.727 363.982 C 75.183 364.151,75.769 364.505,75.769 365.215 C 75.769 365.520,76.001 365.769,76.284 365.769 C 76.567 365.769,77.475 366.543,78.303 367.490 C 79.722 369.112,79.922 369.210,81.824 369.220 C 83.416 369.229,83.941 369.392,84.320 370.000 C 84.680 370.577,85.217 370.769,86.464 370.769 C 88.740 370.769,89.615 371.307,89.615 372.706 C 89.615 373.980,89.852 374.079,90.939 373.257 C 91.541 372.802,93.261 372.692,99.805 372.692 L 107.924 372.692 109.635 370.969 L 111.346 369.246 119.117 369.238 C 126.581 369.231,128.846 369.518,128.846 370.469 C 128.846 370.659,129.020 370.707,129.232 370.576 C 129.444 370.445,129.519 369.940,129.397 369.455 C 129.058 368.107,130.120 367.308,132.250 367.308 C 133.584 367.308,134.233 367.105,134.718 366.538 C 135.286 365.876,135.853 365.769,138.817 365.769 L 142.256 365.769 143.917 367.466 C 146.002 369.598,150.387 370.310,150.385 368.517 C 150.385 367.865,150.548 367.673,150.966 367.833 C 151.937 368.206,153.462 367.278,153.462 366.316 C 153.462 365.051,153.853 364.231,154.457 364.231 C 155.052 364.231,155.327 363.297,155.475 360.769 C 155.575 359.068,155.601 359.036,157.019 358.919 C 158.999 358.755,159.348 355.385,157.385 355.385 C 155.503 355.385,155.385 354.959,155.385 348.200 L 155.385 341.938 156.442 341.706 C 158.542 341.246,158.636 341.174,157.869 340.613 C 157.092 340.045,156.606 335.930,157.089 334.008 C 157.312 333.117,157.500 333.015,158.671 333.152 C 160.114 333.320,160.313 332.946,159.411 331.753 C 158.506 330.557,158.648 326.672,159.615 326.154 C 160.100 325.895,160.385 325.349,160.385 324.679 C 160.385 323.406,161.011 322.692,162.128 322.692 C 163.315 322.692,163.499 322.338,162.838 321.329 C 162.028 320.093,162.281 317.974,163.269 317.707 C 163.841 317.553,164.073 317.108,164.174 315.975 C 164.249 315.136,164.531 314.271,164.801 314.052 C 165.071 313.833,165.410 313.148,165.555 312.530 C 165.699 311.912,166.152 310.980,166.562 310.459 C 166.972 309.938,167.308 309.134,167.308 308.671 C 167.308 308.209,167.740 307.455,168.269 306.995 C 168.798 306.535,169.231 305.756,169.231 305.264 C 169.231 304.689,169.855 303.809,170.975 302.802 C 172.152 301.744,172.766 300.857,172.866 300.069 C 172.973 299.224,173.854 298.071,176.064 295.882 C 178.419 293.548,179.175 292.535,179.382 291.430 C 179.576 290.396,179.846 290.000,180.357 290.000 C 180.748 290.000,181.157 289.645,181.271 289.207 C 181.386 288.771,181.709 288.453,181.989 288.500 C 182.785 288.635,184.615 288.034,184.615 287.638 C 184.615 287.089,190.395 281.513,190.900 281.575 C 191.929 281.701,192.343 281.446,194.076 279.615 C 195.417 278.199,196.181 277.692,196.973 277.692 C 197.656 277.692,198.200 277.411,198.462 276.923 C 198.722 276.436,199.267 276.154,199.946 276.154 C 200.594 276.154,201.378 275.772,201.923 275.192 C 202.637 274.433,203.204 274.231,204.623 274.231 C 205.931 274.231,206.609 274.022,207.115 273.462 C 207.498 273.038,208.298 272.692,208.892 272.692 C 209.579 272.692,210.123 272.412,210.385 271.923 C 210.611 271.500,211.054 271.154,211.369 271.154 C 211.684 271.154,212.110 270.713,212.314 270.175 C 212.549 269.557,212.933 269.238,213.353 269.309 C 213.800 269.385,214.023 269.169,214.029 268.654 C 214.035 268.153,214.340 267.842,214.904 267.762 C 215.454 267.684,215.769 267.373,215.769 266.910 C 215.769 266.509,216.115 265.996,216.538 265.769 C 217.031 265.506,217.308 264.964,217.308 264.264 C 217.308 263.091,218.172 262.083,218.829 262.490 C 219.102 262.658,219.235 260.721,219.243 256.465 C 219.252 251.623,219.381 250.026,219.808 249.463 C 220.436 248.632,220.237 248.010,219.441 248.316 C 217.329 249.126,216.310 243.630,218.077 240.962 C 219.232 239.217,219.104 238.077,217.753 238.077 C 216.237 238.077,212.308 234.358,212.308 232.923 C 212.308 232.325,211.911 231.573,211.328 231.066 C 210.381 230.243,209.951 225.078,210.670 223.173 C 211.012 222.266,218.345 222.525,218.846 223.462 C 219.107 223.949,219.651 224.231,220.331 224.231 C 220.979 224.231,221.763 224.612,222.308 225.192 C 223.629 226.599,229.615 226.599,229.615 225.192 C 229.615 224.632,230.453 224.231,231.624 224.231 C 232.059 224.231,232.634 223.932,232.900 223.567 C 233.167 223.202,233.706 222.886,234.097 222.864 C 236.352 222.737,236.538 222.668,236.538 221.949 C 236.538 220.987,237.577 220.678,239.914 220.945 C 241.677 221.147,241.791 221.107,241.762 220.292 C 241.733 219.483,241.890 219.423,244.038 219.423 L 246.346 219.423 246.465 220.864 L 246.585 222.304 248.024 221.476 C 250.165 220.243,251.676 220.701,251.463 222.517 L 251.308 223.846 253.485 223.846 C 255.602 223.846,255.657 223.819,255.478 222.882 C 255.266 221.772,255.947 220.769,256.913 220.769 C 257.784 220.769,259.944 222.847,259.994 223.732 C 260.015 224.112,260.045 224.867,260.061 225.410 C 260.083 226.161,260.287 226.391,260.910 226.372 C 261.976 226.338,262.278 228.786,261.369 230.084 C 260.620 231.154,260.615 233.033,261.358 234.016 C 261.994 234.856,262.130 237.666,261.538 237.740 C 261.327 237.767,260.946 237.810,260.692 237.837 C 260.437 237.863,260.165 238.577,260.088 239.423 C 259.977 240.623,259.614 241.269,258.434 242.359 L 256.923 243.757 256.923 249.293 C 256.923 253.748,256.803 255.001,256.307 255.709 C 255.599 256.719,255.587 256.697,257.115 257.190 L 258.269 257.563 258.378 261.626 C 258.467 264.939,258.373 265.803,257.872 266.304 C 256.921 267.255,257.281 269.008,258.462 269.171 C 260.406 269.440,260.385 269.295,260.385 282.086 C 260.385 295.012,260.387 295.000,258.340 295.000 C 257.230 295.000,257.225 295.009,257.856 295.972 C 258.851 297.490,258.576 303.226,257.500 303.379 C 256.816 303.476,256.746 303.728,256.865 305.640 C 256.985 307.553,256.889 307.895,256.000 308.719 C 255.396 309.280,255.000 310.060,255.000 310.692 C 255.000 311.321,254.694 311.929,254.231 312.218 C 253.762 312.511,253.462 313.115,253.462 313.766 C 253.462 314.547,252.999 315.241,251.734 316.359 C 250.526 317.425,250.005 318.185,250.003 318.883 C 250.001 319.432,249.677 320.173,249.283 320.530 C 248.797 320.969,248.499 321.922,248.357 323.488 C 248.242 324.758,247.872 326.217,247.535 326.731 C 246.735 327.952,246.752 328.003,247.887 327.786 C 249.841 327.412,250.710 329.712,249.381 331.740 C 248.723 332.746,248.832 332.876,250.577 333.155 C 251.619 333.322,251.973 341.468,250.974 342.298 C 250.228 342.917,250.223 343.618,250.962 344.231 C 251.698 344.842,251.704 346.557,250.974 347.523 C 250.174 348.580,250.244 348.733,251.442 348.559 C 252.854 348.354,254.770 350.298,254.857 352.025 C 254.891 352.694,255.114 353.307,255.354 353.387 C 256.349 353.719,258.378 356.044,258.614 357.121 C 258.868 358.285,260.873 360.769,261.558 360.769 C 261.759 360.769,261.923 361.282,261.923 361.908 C 261.923 362.564,262.260 363.361,262.719 363.788 C 263.157 364.196,263.482 364.766,263.443 365.053 C 263.291 366.155,263.518 366.539,265.383 368.339 C 266.758 369.666,267.304 370.489,267.306 371.236 C 267.307 371.886,267.599 372.436,268.077 372.692 C 268.563 372.953,268.846 373.498,268.846 374.175 C 268.846 374.796,269.210 375.577,269.712 376.034 C 270.188 376.467,271.096 377.446,271.731 378.210 L 272.885 379.599 281.250 379.607 C 288.975 379.615,289.672 379.672,290.353 380.353 C 291.218 381.218,291.538 381.023,291.538 379.628 C 291.538 378.038,292.203 377.692,295.256 377.692 C 297.656 377.692,298.108 377.584,298.462 376.923 C 298.752 376.381,299.267 376.154,300.206 376.154 C 301.757 376.154,301.803 376.034,300.762 374.712 C 300.326 374.157,300.081 373.428,300.202 373.045 C 300.360 372.548,300.181 372.332,299.536 372.240 C 298.855 372.144,298.610 371.809,298.462 370.769 C 298.296 369.611,298.109 369.406,297.115 369.297 C 296.481 369.228,295.529 368.765,295.000 368.269 C 294.471 367.773,293.519 367.311,292.885 367.241 C 291.859 367.129,291.718 366.957,291.613 365.692 L 291.494 364.269 290.266 365.018 C 289.379 365.558,288.337 365.767,286.511 365.768 L 283.984 365.769 281.799 363.671 C 280.093 362.031,279.615 361.319,279.615 360.415 C 279.615 359.651,279.354 359.118,278.846 358.846 C 278.423 358.620,278.077 358.181,278.077 357.871 C 278.077 357.085,282.586 357.106,283.631 357.897 C 284.590 358.622,285.035 358.616,284.754 357.884 C 284.127 356.250,284.913 355.428,287.214 355.308 L 289.423 355.192 289.641 353.558 C 289.787 352.465,289.714 351.923,289.422 351.923 C 289.182 351.923,288.609 351.490,288.149 350.962 C 287.608 350.339,286.910 350.000,286.170 350.000 C 285.421 350.000,284.885 349.735,284.615 349.231 C 284.356 348.746,283.810 348.462,283.140 348.462 C 281.867 348.462,281.154 347.835,281.154 346.718 C 281.154 345.549,280.742 345.290,279.979 345.980 C 278.918 346.941,274.423 346.614,274.423 345.577 C 274.422 345.154,274.206 344.786,273.942 344.760 C 273.678 344.733,273.288 344.690,273.077 344.663 C 272.424 344.582,272.606 339.782,273.282 339.220 C 274.417 338.278,273.908 331.381,272.692 331.213 C 270.723 330.941,270.769 331.336,270.769 314.838 C 270.769 298.241,270.742 298.462,272.769 298.462 C 273.963 298.462,274.147 298.036,273.269 297.308 C 271.711 296.014,274.918 290.000,277.166 290.000 C 277.355 290.000,277.681 289.611,277.890 289.135 C 278.131 288.585,278.673 288.223,279.377 288.143 C 280.880 287.971,283.173 285.701,283.173 284.385 C 283.173 283.711,283.418 283.300,283.894 283.176 C 284.291 283.072,284.615 282.776,284.615 282.518 C 284.615 282.259,285.393 281.371,286.343 280.543 C 287.609 279.441,288.135 278.659,288.311 277.620 C 288.444 276.840,288.791 276.110,289.084 275.997 C 289.376 275.885,289.615 275.369,289.615 274.849 C 289.615 274.330,290.048 273.391,290.577 272.762 C 291.106 272.134,291.538 271.175,291.538 270.631 C 291.538 270.036,291.845 269.479,292.308 269.231 C 292.792 268.971,293.077 268.425,293.077 267.756 C 293.077 266.402,293.714 265.769,295.077 265.769 C 296.289 265.769,296.379 265.523,295.565 264.446 C 294.208 262.652,295.111 258.156,296.639 259.100 C 296.905 259.265,296.962 259.118,296.798 258.689 C 296.657 258.322,296.714 257.698,296.925 257.303 C 297.182 256.824,297.181 256.506,296.924 256.347 C 296.230 255.918,296.519 254.627,297.500 253.774 C 298.099 253.253,298.462 252.531,298.462 251.857 C 298.462 251.192,298.758 250.591,299.231 250.295 C 299.675 250.018,300.000 249.398,300.000 248.829 C 300.000 247.844,302.222 245.000,302.991 245.000 C 303.464 245.000,303.846 244.078,303.846 242.939 C 303.846 242.474,304.192 241.798,304.615 241.435 C 305.038 241.073,305.385 240.342,305.385 239.811 C 305.385 239.281,305.731 238.500,306.154 238.077 C 306.679 237.552,306.925 236.789,306.929 235.673 C 306.937 233.475,307.336 232.937,308.804 233.153 C 310.122 233.346,310.322 232.917,309.393 231.890 C 308.510 230.914,308.552 178.391,309.437 177.039 C 310.306 175.713,310.216 171.785,309.327 172.242 C 308.580 172.626,307.650 172.418,307.217 171.769 C 306.496 170.688,306.900 157.542,307.692 156.346 C 308.940 154.462,308.728 153.530,307.019 153.389 L 305.577 153.269 305.470 147.545 C 305.384 142.926,305.477 141.647,305.951 140.924 C 306.805 139.620,306.684 139.343,305.342 139.540 C 303.228 139.850,302.557 136.309,304.423 134.687 C 305.050 134.142,305.385 133.449,305.385 132.695 C 305.385 132.059,305.558 131.517,305.769 131.490 C 305.981 131.464,306.370 131.421,306.635 131.394 C 306.899 131.368,307.137 131.130,307.163 130.865 C 307.190 130.601,307.233 130.240,307.260 130.064 C 307.286 129.888,307.813 129.744,308.430 129.744 C 309.251 129.744,309.982 129.297,311.149 128.082 C 312.273 126.912,313.103 126.392,313.956 126.325 C 314.622 126.273,315.241 126.007,315.332 125.734 C 315.677 124.699,317.870 123.114,319.291 122.875 C 320.104 122.737,320.769 122.441,320.769 122.217 C 320.769 121.707,325.178 117.308,325.689 117.308 C 325.895 117.308,326.155 116.962,326.265 116.538 C 326.410 115.987,326.790 115.769,327.609 115.769 C 328.907 115.769,329.622 115.096,329.732 113.768 C 329.774 113.267,330.500 112.171,331.346 111.332 C 332.866 109.826,332.884 109.777,332.794 107.206 C 332.716 104.956,332.820 104.488,333.563 103.745 C 334.632 102.678,335.162 90.583,334.169 89.953 C 332.885 89.140,325.974 89.564,325.572 90.481 C 325.224 91.274,324.937 91.346,322.115 91.346 C 319.364 91.346,319.016 91.428,318.830 92.115 C 318.652 92.773,318.243 92.901,316.008 92.999 C 313.922 93.090,313.436 93.225,313.605 93.666 C 313.854 94.313,312.751 95.000,311.464 95.000 C 310.972 95.000,310.349 95.354,310.079 95.786 C 309.340 96.969,304.098 96.762,303.924 95.543 C 303.831 94.893,303.514 94.728,302.261 94.679 C 300.757 94.620,298.462 92.998,298.462 91.994 C 298.462 91.612,296.676 90.977,295.927 91.094 C 295.697 91.130,295.194 90.812,294.810 90.387 C 294.426 89.963,293.625 89.615,293.031 89.615 C 292.344 89.615,291.800 89.335,291.538 88.846 C 291.272 88.348,290.733 88.077,290.008 88.077 C 289.286 88.077,288.676 87.772,288.287 87.216 C 287.818 86.547,287.191 86.311,285.476 86.158 C 283.631 85.994,283.251 85.834,283.157 85.181 C 283.053 84.453,282.776 84.402,278.973 84.412 C 274.466 84.424,273.492 83.963,274.525 82.309 C 275.178 81.264,269.438 81.133,267.874 82.158 C 265.952 83.417,264.898 80.918,266.390 78.640 C 267.003 77.706,266.995 77.692,265.861 77.692 C 264.556 77.692,264.071 77.226,263.680 75.596 C 263.367 74.288,258.512 69.231,257.569 69.231 C 257.047 69.231,256.933 69.851,256.840 73.169 M123.269 105.182 C 121.577 106.961,119.901 108.427,119.546 108.439 C 119.178 108.452,118.847 108.834,118.777 109.327 C 118.681 110.003,118.363 110.220,117.323 110.319 C 116.546 110.393,115.771 110.760,115.463 111.200 C 115.117 111.694,114.683 111.874,114.204 111.722 C 113.670 111.553,112.963 112.000,111.581 113.382 C 110.412 114.552,109.212 115.369,108.437 115.524 C 107.748 115.662,106.942 116.120,106.647 116.541 C 106.223 117.146,105.672 117.308,104.030 117.308 C 102.344 117.308,101.872 117.453,101.538 118.077 C 101.235 118.644,100.733 118.846,99.629 118.846 C 98.376 118.846,98.110 118.986,98.008 119.697 C 97.919 120.311,97.532 120.620,96.619 120.806 C 95.923 120.947,95.044 121.343,94.666 121.685 C 94.287 122.028,93.429 122.308,92.758 122.308 C 92.087 122.308,91.538 122.475,91.538 122.679 C 91.538 123.496,89.042 125.573,87.995 125.625 C 87.253 125.663,86.439 126.201,85.391 127.349 C 84.551 128.267,83.558 129.036,83.182 129.058 C 81.495 129.159,81.154 129.256,81.154 129.636 C 81.154 129.859,78.385 132.808,75.000 136.189 C 69.821 141.364,68.846 142.518,68.846 143.477 C 68.846 144.359,68.673 144.615,68.077 144.615 C 67.654 144.615,67.308 144.845,67.308 145.125 C 67.308 145.406,66.875 146.042,66.346 146.538 C 65.766 147.083,65.385 147.868,65.385 148.515 C 65.385 149.195,65.102 149.739,64.615 150.000 C 64.051 150.302,63.846 150.805,63.846 151.892 C 63.846 153.048,63.678 153.416,63.077 153.573 C 62.072 153.836,62.058 155.424,63.053 156.324 C 63.778 156.981,63.801 156.954,63.918 155.326 C 64.064 153.296,64.865 153.026,67.407 154.150 L 69.076 154.888 69.163 153.737 C 69.282 152.183,69.494 151.923,70.640 151.923 C 71.179 151.923,72.134 151.490,72.762 150.962 C 73.976 149.940,75.170 149.958,76.720 151.019 C 77.795 151.755,77.996 151.672,77.786 150.575 C 77.546 149.319,78.289 148.462,79.618 148.462 C 80.327 148.462,80.890 148.142,81.311 147.500 C 81.657 146.971,82.176 146.538,82.464 146.538 C 82.752 146.538,83.078 146.192,83.188 145.769 C 83.334 145.213,83.713 145.000,84.558 145.000 C 85.280 145.000,85.926 144.714,86.252 144.249 C 86.541 143.836,87.333 143.400,88.011 143.281 C 88.753 143.150,89.837 142.454,90.731 141.532 C 91.561 140.676,92.585 140.000,93.049 140.000 C 93.507 140.000,94.289 139.592,94.787 139.094 C 95.285 138.596,95.969 138.082,96.308 137.953 C 96.646 137.823,96.923 137.448,96.923 137.120 C 96.923 136.681,97.169 136.586,97.857 136.758 C 98.646 136.956,99.231 136.541,101.623 134.087 C 104.380 131.257,104.481 131.194,105.469 131.707 C 106.638 132.314,106.923 132.153,106.923 130.888 C 106.923 130.274,107.234 129.863,107.885 129.615 C 108.413 129.414,108.846 129.079,108.846 128.870 C 108.846 128.253,114.639 122.661,115.028 122.902 C 115.667 123.297,115.403 125.248,114.615 125.962 C 114.192 126.344,113.846 127.040,113.846 127.508 C 113.846 128.494,97.502 145.165,96.900 144.793 C 96.701 144.670,96.538 145.013,96.538 145.554 C 96.538 146.407,96.372 146.539,95.288 146.544 C 93.853 146.551,93.315 146.839,92.965 147.788 C 92.828 148.159,92.439 148.462,92.099 148.462 C 91.294 148.462,91.524 149.757,92.359 149.918 C 92.721 149.988,93.063 149.711,93.183 149.249 C 93.343 148.638,93.702 148.462,94.781 148.462 C 95.912 148.462,96.241 148.281,96.538 147.500 C 96.840 146.708,97.161 146.538,98.360 146.538 C 99.398 146.538,99.952 146.318,100.295 145.769 C 100.600 145.282,101.192 145.000,101.913 145.000 C 102.670 145.000,103.193 144.733,103.478 144.201 C 103.735 143.720,104.134 143.490,104.480 143.623 C 105.784 144.123,118.704 131.617,119.119 129.453 C 119.256 128.740,120.011 127.652,121.019 126.715 C 122.561 125.284,122.692 125.011,122.692 123.250 C 122.692 121.755,122.860 121.234,123.462 120.858 C 123.940 120.559,124.231 119.962,124.231 119.275 C 124.231 117.908,125.075 117.159,126.344 117.401 C 127.445 117.612,127.514 117.421,126.719 116.369 C 125.610 114.903,125.955 110.827,127.212 110.552 C 129.035 110.153,129.231 110.041,129.231 109.398 C 129.231 109.054,128.894 108.300,128.483 107.722 C 127.995 107.037,127.694 105.881,127.617 104.397 C 127.455 101.243,126.926 101.339,123.269 105.182 M105.990 168.138 C 105.360 168.741,104.600 168.846,100.869 168.846 C 96.117 168.846,95.000 169.166,95.000 170.526 C 95.000 171.772,95.290 171.927,96.469 171.312 C 98.429 170.290,101.538 170.690,101.538 171.964 C 101.538 172.604,101.842 172.692,104.025 172.692 C 106.118 172.692,106.577 172.814,106.923 173.462 C 107.157 173.899,107.728 174.231,108.248 174.231 C 109.529 174.231,112.216 176.083,112.887 177.428 C 113.571 178.799,113.254 179.510,112.331 178.675 C 111.930 178.312,110.515 177.954,108.811 177.784 C 106.368 177.541,105.907 177.376,105.582 176.635 C 105.222 175.815,104.986 175.769,101.089 175.769 C 96.915 175.769,95.830 175.304,96.704 173.890 C 97.078 173.284,95.960 173.140,95.199 173.697 C 94.127 174.481,71.820 174.473,70.316 173.688 C 69.151 173.081,68.846 173.230,68.846 174.410 C 68.846 175.483,69.549 176.154,70.673 176.154 C 71.605 176.154,74.231 178.382,74.231 179.173 C 74.231 179.597,75.199 179.801,76.635 179.681 C 77.103 179.642,77.308 179.903,77.308 180.541 C 77.308 181.419,77.397 181.450,79.435 181.268 C 81.666 181.070,82.904 181.587,82.530 182.562 C 82.376 182.961,82.923 183.077,84.971 183.077 C 87.727 183.077,88.077 183.297,88.077 185.031 C 88.077 185.907,88.392 185.943,89.400 185.180 C 90.025 184.708,92.419 184.615,104.035 184.615 C 118.657 184.615,118.846 184.638,118.846 186.359 C 118.846 187.533,119.216 187.746,120.136 187.102 C 121.446 186.184,125.652 186.333,125.962 187.308 C 126.249 188.213,126.657 188.284,127.279 187.535 C 127.635 187.105,127.555 186.870,126.891 186.405 C 126.374 186.043,126.142 185.586,126.285 185.213 C 126.567 184.477,125.939 182.692,125.397 182.692 C 124.916 182.692,117.308 175.066,117.308 174.585 C 117.308 174.395,116.601 174.127,115.736 173.989 C 114.872 173.850,114.076 173.507,113.968 173.225 C 113.860 172.944,113.140 172.596,112.367 172.452 C 111.594 172.308,110.735 171.871,110.459 171.480 C 110.173 171.075,109.489 170.769,108.871 170.769 C 107.563 170.769,107.028 170.197,106.858 168.617 C 106.734 167.457,106.714 167.446,105.990 168.138 M66.482 194.887 C 65.523 195.120,65.314 196.464,66.193 196.743 C 66.595 196.871,66.943 197.093,66.967 197.237 C 66.991 197.382,67.066 197.964,67.134 198.530 C 67.209 199.154,67.951 200.214,69.013 201.213 C 70.155 202.287,70.769 203.190,70.769 203.792 C 70.769 204.426,71.559 205.489,73.269 207.158 C 74.644 208.499,75.769 209.861,75.769 210.183 C 75.769 210.513,76.106 210.769,76.538 210.769 C 77.042 210.769,77.308 211.026,77.308 211.512 C 77.308 211.989,77.617 212.298,78.173 212.377 C 78.731 212.456,79.082 212.809,79.162 213.371 C 79.230 213.850,79.436 214.149,79.620 214.035 C 79.976 213.815,86.154 219.788,86.154 220.353 C 86.154 220.710,87.983 221.325,88.705 221.210 C 88.944 221.172,89.706 221.793,90.398 222.590 C 91.858 224.270,93.012 225.001,93.755 224.716 C 94.044 224.605,94.538 224.883,94.854 225.334 C 95.218 225.854,95.841 226.154,96.557 226.154 C 97.269 226.154,97.863 226.438,98.166 226.923 C 98.481 227.427,99.063 227.692,99.856 227.692 C 100.722 227.692,101.244 227.966,101.695 228.654 C 102.121 229.303,102.677 229.615,103.411 229.615 C 104.008 229.615,104.809 229.962,105.192 230.385 C 105.575 230.808,106.194 231.154,106.567 231.154 C 107.755 231.154,108.462 231.599,108.462 232.349 C 108.462 232.941,108.747 233.077,109.986 233.077 C 111.118 233.077,111.618 233.275,111.923 233.846 C 112.189 234.343,112.728 234.615,113.448 234.615 C 114.519 234.615,115.544 235.287,115.844 236.185 C 115.923 236.421,116.567 236.660,117.276 236.716 C 117.984 236.772,118.723 237.101,118.917 237.447 C 119.114 237.800,119.750 238.077,120.364 238.077 C 121.244 238.077,122.296 238.912,125.739 242.345 C 128.425 245.024,130.222 246.536,130.564 246.404 C 131.469 246.057,131.587 236.152,130.687 236.153 C 129.183 236.155,128.807 233.471,129.955 230.943 L 130.662 229.386 129.486 229.297 C 128.039 229.186,128.158 229.331,128.009 227.496 C 127.918 226.375,127.686 225.907,127.149 225.760 C 126.660 225.626,126.396 225.189,126.365 224.461 C 126.334 223.769,125.933 223.059,125.274 222.533 C 124.700 222.076,124.231 221.504,124.231 221.261 C 124.231 221.019,123.885 220.711,123.462 220.577 C 122.979 220.424,122.692 219.995,122.692 219.427 C 122.692 218.299,122.022 217.504,116.127 211.635 C 112.752 208.275,111.133 206.923,110.485 206.923 C 109.552 206.923,106.923 204.698,106.923 203.908 C 106.923 203.667,106.231 203.360,105.385 203.225 C 104.211 203.037,103.846 202.804,103.846 202.242 C 103.846 201.836,103.630 201.533,103.365 201.567 C 101.523 201.806,100.385 201.501,100.385 200.769 C 100.385 199.806,97.689 199.654,96.926 200.574 C 96.361 201.255,98.423 203.462,99.625 203.462 C 100.832 203.462,101.538 203.903,101.538 204.657 C 101.538 205.057,101.774 205.385,102.062 205.385 C 102.351 205.385,103.519 206.346,104.659 207.521 C 105.798 208.696,106.965 209.890,107.250 210.175 C 107.536 210.459,109.830 212.729,112.348 215.219 C 114.866 217.710,116.905 219.934,116.879 220.162 C 116.769 221.132,116.977 221.590,117.885 222.380 C 118.867 223.234,119.206 225.117,118.461 225.577 C 118.249 225.709,116.620 224.334,114.841 222.523 C 113.063 220.712,111.321 219.231,110.971 219.231 C 109.991 219.231,108.846 218.498,108.846 217.871 C 108.846 217.561,108.626 217.308,108.356 217.308 C 108.086 217.308,107.144 216.541,106.261 215.603 C 105.104 214.373,104.303 213.864,103.386 213.776 C 102.407 213.682,102.087 213.455,101.992 212.788 C 101.925 212.313,101.609 211.923,101.290 211.923 C 100.651 211.923,98.462 209.894,98.462 209.302 C 98.462 208.969,97.014 208.397,95.936 208.304 C 95.710 208.285,95.222 207.966,94.850 207.596 C 94.479 207.226,93.736 206.923,93.197 206.923 C 92.311 206.923,89.876 204.820,89.518 203.745 C 89.452 203.547,88.798 203.339,88.064 203.282 C 87.058 203.205,86.702 202.986,86.612 202.393 C 86.515 201.747,86.252 201.625,85.146 201.713 C 83.861 201.815,82.692 201.169,82.692 200.357 C 82.692 200.161,81.660 200.000,80.398 200.000 C 78.498 200.000,78.033 199.868,77.692 199.231 C 77.429 198.739,76.887 198.462,76.187 198.462 C 75.028 198.462,74.005 197.600,74.402 196.958 C 74.548 196.721,73.641 196.531,72.031 196.460 C 69.718 196.359,69.410 196.255,69.308 195.539 C 69.193 194.737,68.119 194.490,66.482 194.887 M93.462 199.203 C 93.462 199.641,93.534 200.000,93.622 200.000 C 93.711 200.000,94.072 200.111,94.425 200.246 C 94.932 200.441,95.040 200.299,94.938 199.577 C 94.771 198.402,93.462 198.070,93.462 199.203 M370.696 282.592 C 370.584 283.935,370.482 284.037,368.942 284.339 C 368.043 284.516,367.308 284.810,367.308 284.992 C 367.308 285.438,362.725 290.000,362.277 290.000 C 362.082 290.000,361.923 291.043,361.923 292.317 C 361.923 294.584,361.898 294.640,360.769 294.865 C 359.180 295.183,359.096 296.811,360.659 296.994 C 361.486 297.090,361.755 297.371,361.953 298.344 C 362.605 301.558,369.395 303.723,370.769 301.154 C 370.998 300.726,371.575 300.385,372.067 300.385 C 373.510 300.385,375.703 298.460,376.008 296.926 C 376.180 296.060,376.883 294.991,377.990 293.916 C 379.546 292.404,379.686 292.120,379.484 290.878 C 379.185 289.037,379.753 288.077,381.141 288.077 C 382.396 288.077,382.921 287.118,382.527 285.549 C 382.343 284.814,382.042 284.615,381.111 284.615 C 380.271 284.615,379.872 284.403,379.736 283.882 C 379.492 282.949,378.549 282.704,375.169 282.698 C 372.997 282.693,372.289 282.540,371.634 281.929 L 370.815 281.166 370.696 282.592 M21.250 282.947 C 20.332 283.318,20.598 291.432,21.538 291.731 C 22.065 291.898,22.308 292.313,22.308 293.047 C 22.308 293.657,22.722 294.565,23.269 295.156 C 23.798 295.727,24.231 296.337,24.231 296.513 C 24.231 296.689,24.577 296.924,25.000 297.035 C 25.470 297.157,25.769 297.559,25.769 298.066 C 25.769 299.523,26.484 300.385,27.692 300.385 C 28.425 300.385,28.963 300.653,29.231 301.154 C 29.588 301.822,30.036 301.923,32.646 301.923 C 35.162 301.923,35.763 301.798,36.346 301.154 C 36.729 300.731,37.234 300.385,37.468 300.385 C 37.703 300.385,38.065 299.996,38.274 299.521 C 38.483 299.047,39.000 298.594,39.423 298.515 C 41.621 298.107,41.295 293.434,39.038 293.018 C 38.511 292.920,38.209 292.485,38.077 291.632 C 37.794 289.806,32.734 284.706,31.042 284.542 C 30.100 284.451,29.779 284.218,29.685 283.558 C 29.565 282.714,23.004 282.239,21.250 282.947 M331.154 283.635 C 331.154 283.973,330.721 284.414,330.192 284.615 C 329.663 284.816,329.231 285.233,329.231 285.541 C 329.231 285.850,328.903 286.206,328.503 286.333 C 328.103 286.460,327.686 286.904,327.578 287.320 C 327.469 287.737,327.116 288.077,326.793 288.077 C 326.470 288.077,326.096 288.423,325.962 288.846 C 325.827 289.269,325.383 289.615,324.974 289.615 C 324.495 289.615,324.231 289.880,324.231 290.362 C 324.231 291.204,323.630 291.737,323.294 291.194 C 323.050 290.800,320.769 291.520,320.769 291.991 C 320.769 292.679,316.509 296.284,315.579 296.383 C 314.974 296.448,313.979 297.138,313.093 298.107 C 312.008 299.294,311.277 299.750,310.340 299.823 C 309.638 299.879,309.006 300.098,308.935 300.310 C 308.591 301.343,306.360 303.156,305.261 303.295 C 304.596 303.379,303.772 303.819,303.429 304.274 C 303.087 304.728,302.391 305.142,301.884 305.193 C 301.377 305.244,300.745 305.309,300.481 305.336 C 300.216 305.363,300.000 305.578,300.000 305.814 C 300.000 306.659,297.181 308.846,296.092 308.846 C 295.421 308.846,294.875 309.130,294.615 309.615 C 294.355 310.102,293.810 310.385,293.133 310.385 C 292.470 310.385,291.743 310.751,291.226 311.346 C 290.711 311.939,289.981 312.308,289.326 312.308 C 288.679 312.308,288.074 312.609,287.782 313.077 C 287.383 313.716,286.885 313.846,284.847 313.846 C 282.756 313.846,282.401 313.945,282.447 314.512 C 282.479 314.914,282.195 315.213,281.731 315.266 C 279.064 315.573,278.270 315.985,278.143 317.129 C 278.042 318.050,278.112 318.177,278.509 317.788 C 279.803 316.521,281.154 317.840,281.154 320.371 C 281.154 322.914,283.031 323.636,284.687 321.731 C 285.193 321.149,285.934 320.769,286.561 320.769 C 287.131 320.769,287.799 320.528,288.044 320.233 C 288.289 319.937,289.045 319.587,289.725 319.453 C 290.527 319.295,291.490 318.605,292.466 317.490 C 293.577 316.219,294.253 315.769,295.049 315.769 C 295.721 315.769,296.277 315.489,296.525 315.026 C 296.743 314.617,297.250 314.179,297.650 314.052 C 298.051 313.925,298.468 313.480,298.576 313.064 C 298.719 312.520,299.104 312.308,299.950 312.308 C 300.808 312.308,301.519 311.905,302.582 310.817 C 303.546 309.831,304.527 309.240,305.481 309.069 C 306.274 308.927,306.923 308.627,306.923 308.402 C 306.923 307.789,311.053 303.846,311.696 303.846 C 312.003 303.846,312.309 303.457,312.377 302.981 C 312.471 302.320,312.792 302.087,313.737 301.996 C 314.930 301.881,322.415 294.971,324.127 292.404 C 324.444 291.928,324.944 291.538,325.237 291.538 C 325.530 291.538,325.769 291.275,325.769 290.953 C 325.769 290.631,326.202 290.171,326.731 289.930 C 327.260 289.689,327.692 289.244,327.692 288.941 C 327.692 288.638,328.038 288.299,328.462 288.188 C 328.885 288.078,329.231 287.829,329.231 287.635 C 329.231 287.135,331.811 284.615,332.323 284.615 C 332.557 284.615,332.691 284.314,332.620 283.947 C 332.453 283.079,331.154 282.803,331.154 283.635 M351.460 288.629 C 351.382 289.175,351.013 289.461,350.280 289.546 C 349.676 289.615,348.953 290.067,348.611 290.588 C 348.279 291.094,347.677 291.613,347.273 291.742 C 346.774 291.900,346.538 292.330,346.538 293.081 C 346.538 293.751,346.235 294.400,345.769 294.726 C 345.345 295.023,344.938 295.787,344.864 296.424 C 344.671 298.081,344.333 298.462,343.054 298.462 C 341.811 298.462,341.611 298.878,342.500 299.615 C 343.227 300.219,343.222 301.507,342.488 302.477 C 341.796 303.392,341.764 303.900,342.404 303.817 C 344.131 303.593,344.584 303.866,344.849 305.288 C 344.996 306.082,345.441 306.960,345.838 307.240 C 346.234 307.521,346.511 308.011,346.453 308.330 C 346.367 308.794,346.881 308.927,349.038 309.001 C 350.519 309.051,352.120 309.230,352.596 309.399 C 353.314 309.653,353.462 309.569,353.462 308.907 C 353.462 308.467,353.882 307.712,354.396 307.227 C 354.909 306.743,355.385 305.827,355.453 305.192 C 355.562 304.180,355.753 304.015,357.017 303.846 L 358.457 303.654 357.692 302.500 C 357.021 301.486,356.928 300.688,356.926 295.906 L 356.923 290.466 355.810 289.274 C 354.377 287.740,351.645 287.335,351.460 288.629 M44.601 288.909 C 44.254 289.380,43.579 289.712,42.966 289.712 C 41.776 289.712,41.693 289.933,42.488 290.984 C 43.291 292.046,43.310 299.545,42.512 300.600 C 41.690 301.686,41.789 301.923,43.063 301.923 C 44.477 301.923,45.000 302.800,45.000 305.167 C 45.000 306.300,45.171 306.933,45.481 306.952 C 46.948 307.039,47.882 307.407,48.356 308.084 C 49.134 309.195,52.866 309.189,53.462 308.077 C 53.688 307.654,54.099 307.308,54.375 307.308 C 54.651 307.308,55.074 306.875,55.315 306.346 C 55.661 305.587,56.036 305.385,57.101 305.385 L 58.450 305.385 57.688 304.135 C 56.664 302.455,56.666 299.434,57.692 297.885 L 58.457 296.731 57.062 296.538 C 55.789 296.363,55.658 296.229,55.564 295.013 C 55.507 294.279,55.268 293.615,55.032 293.536 C 54.796 293.458,53.783 292.544,52.782 291.506 C 51.483 290.160,50.662 289.619,49.917 289.617 C 49.268 289.616,48.717 289.324,48.462 288.846 C 47.882 287.763,45.415 287.803,44.601 288.909 M388.781 291.496 C 388.526 291.581,387.874 292.178,387.332 292.823 C 386.790 293.467,386.123 294.178,385.849 294.401 C 384.210 295.742,383.049 297.276,382.841 298.376 C 382.710 299.069,382.288 299.805,381.903 300.011 C 381.498 300.227,381.152 300.913,381.082 301.635 C 380.999 302.492,380.690 303.004,380.096 303.264 C 378.739 303.860,378.810 308.097,380.192 309.003 C 380.802 309.403,381.154 309.992,381.154 310.615 C 381.154 312.588,383.012 313.807,386.208 313.930 L 389.038 314.038 391.250 311.785 C 393.403 309.590,393.630 309.218,393.481 308.132 C 393.441 307.844,393.767 307.359,394.204 307.052 C 395.241 306.326,395.469 293.077,394.445 293.077 C 394.140 293.077,393.662 292.751,393.383 292.354 C 392.897 291.660,389.941 291.109,388.781 291.496 M7.179 291.795 C 7.038 291.936,6.923 292.510,6.923 293.072 C 6.923 293.681,6.535 294.429,5.962 294.928 C 5.033 295.735,5.000 295.929,5.000 300.489 C 5.000 304.149,4.865 305.407,4.399 306.071 C 3.809 306.914,4.559 307.877,5.259 307.176 C 5.854 306.582,6.923 307.786,6.923 309.052 C 6.923 309.785,7.087 310.385,7.288 310.385 C 7.829 310.385,9.998 312.746,10.418 313.793 C 10.703 314.503,10.971 314.646,11.641 314.448 C 12.114 314.309,13.538 314.090,14.808 313.961 C 16.424 313.797,17.266 313.514,17.618 313.017 C 17.894 312.627,18.350 312.308,18.631 312.308 C 18.911 312.308,19.232 311.962,19.342 311.538 C 19.453 311.115,19.862 310.770,20.252 310.770 C 20.896 310.771,20.950 310.467,20.836 307.478 C 20.741 304.975,20.856 303.964,21.313 303.266 C 21.962 302.275,21.883 302.158,20.314 301.783 C 19.746 301.648,19.172 301.191,19.038 300.768 C 18.904 300.346,18.565 300.000,18.284 300.000 C 17.734 300.000,17.308 299.181,17.308 298.122 C 17.308 297.758,16.532 296.691,15.585 295.750 C 14.637 294.808,13.858 293.741,13.854 293.377 C 13.849 292.962,13.641 292.795,13.293 292.929 C 12.979 293.049,12.522 292.795,12.239 292.340 C 11.738 291.539,7.854 291.121,7.179 291.795 M363.077 305.800 C 362.130 306.073,362.129 306.078,363.006 306.116 C 364.997 306.201,363.932 308.251,361.827 308.386 C 360.355 308.481,360.000 308.641,360.000 309.208 C 360.000 309.747,359.598 309.973,358.289 310.169 C 357.063 310.353,356.636 310.575,356.781 310.953 C 357.259 312.198,354.279 312.559,349.423 311.844 C 349.000 311.782,348.640 311.817,348.623 311.923 C 348.454 312.965,347.521 313.846,346.587 313.846 C 345.792 313.846,345.116 314.296,344.005 315.566 C 342.809 316.933,342.243 317.289,341.250 317.297 L 340.000 317.308 340.000 320.000 C 340.000 322.591,340.035 322.692,340.930 322.692 C 342.596 322.692,343.077 323.087,343.077 324.451 C 343.077 325.349,343.311 325.868,343.846 326.154 C 344.269 326.380,344.615 326.823,344.615 327.138 C 344.615 327.454,345.048 327.876,345.577 328.077 C 346.106 328.278,346.538 328.706,346.538 329.029 C 346.538 329.351,346.797 329.615,347.112 329.615 C 347.428 329.615,347.902 329.962,348.166 330.385 C 348.430 330.808,349.023 331.154,349.484 331.154 C 350.828 331.154,351.538 331.567,351.538 332.349 C 351.538 332.982,351.838 333.077,353.846 333.077 L 356.154 333.077 359.267 336.250 C 360.980 337.995,362.801 339.917,363.315 340.521 C 364.369 341.760,364.071 341.723,372.019 341.615 C 376.165 341.559,377.692 341.413,377.692 341.072 C 377.692 340.816,378.133 340.253,378.672 339.822 C 379.212 339.390,379.620 338.694,379.582 338.269 C 379.543 337.846,379.492 335.803,379.467 333.730 C 379.426 330.237,379.356 329.909,378.509 329.268 C 377.578 328.564,377.514 327.460,378.266 325.125 C 378.496 324.414,378.373 324.270,377.441 324.164 L 376.346 324.038 376.154 318.450 L 375.962 312.861 374.327 311.386 C 373.428 310.574,372.692 309.712,372.692 309.470 C 372.692 309.227,372.303 308.858,371.827 308.649 C 371.183 308.367,370.962 307.949,370.965 307.019 C 370.969 305.686,370.399 305.402,369.615 306.346 C 368.794 307.336,365.102 306.948,364.231 305.781 C 364.125 305.639,363.606 305.648,363.077 305.800 M30.688 307.692 C 30.599 308.460,30.333 308.678,29.367 308.771 C 28.702 308.836,27.853 309.225,27.481 309.637 C 27.108 310.048,26.571 310.385,26.287 310.385 C 26.002 310.385,25.769 310.643,25.769 310.958 C 25.769 311.274,25.423 311.748,25.000 312.012 C 24.283 312.460,24.230 312.913,24.225 318.650 C 24.218 325.339,24.164 325.578,22.569 325.978 C 21.759 326.182,21.561 326.403,21.770 326.874 C 22.490 328.498,22.409 330.497,21.598 331.117 C 20.891 331.658,20.789 332.171,20.737 335.444 C 20.670 339.659,20.785 340.000,22.271 340.000 C 22.860 340.000,23.656 340.346,24.038 340.769 C 24.674 341.472,25.223 341.538,30.352 341.538 C 35.552 341.538,36.004 341.481,36.449 340.769 C 36.713 340.346,37.188 340.000,37.503 340.000 C 37.819 340.000,38.078 339.784,38.080 339.519 C 38.081 339.255,39.293 337.848,40.772 336.393 C 42.251 334.937,43.462 333.596,43.462 333.412 C 43.462 333.228,44.383 333.077,45.510 333.077 C 47.197 333.077,47.717 332.908,48.462 332.115 C 49.007 331.535,49.791 331.154,50.438 331.154 C 51.118 331.154,51.662 330.872,51.923 330.385 C 52.150 329.962,52.675 329.615,53.090 329.615 C 53.506 329.615,53.826 329.486,53.801 329.327 C 53.666 328.477,53.927 328.077,54.615 328.077 C 55.124 328.077,55.385 327.821,55.385 327.321 C 55.385 326.906,55.731 326.380,56.154 326.154 C 56.643 325.892,56.923 325.349,56.923 324.661 C 56.923 324.067,57.269 323.267,57.692 322.885 C 58.115 322.502,58.462 321.819,58.462 321.368 C 58.462 320.917,58.808 319.868,59.231 319.038 C 59.654 318.209,59.980 317.177,59.955 316.746 C 59.917 316.066,59.887 316.054,59.731 316.657 C 59.471 317.659,57.611 317.369,57.120 316.250 C 56.912 315.774,56.549 315.385,56.315 315.385 C 56.080 315.385,55.575 315.038,55.192 314.615 C 54.809 314.192,54.010 313.846,53.415 313.846 C 52.728 313.846,52.185 313.566,51.923 313.077 C 51.556 312.391,51.118 312.308,47.869 312.308 C 44.462 312.308,44.171 312.245,43.390 311.346 C 42.872 310.751,42.146 310.385,41.483 310.385 C 40.805 310.385,40.260 310.102,40.000 309.615 C 39.765 309.177,39.195 308.846,38.672 308.846 C 37.266 308.846,36.538 308.449,36.538 307.682 C 36.538 306.400,30.837 306.411,30.688 307.692 M184.153 310.222 C 183.664 310.973,184.310 312.329,185.434 312.910 C 186.421 313.421,186.538 313.418,186.538 312.885 C 186.538 312.557,186.119 312.129,185.606 311.934 C 185.067 311.729,184.621 311.207,184.548 310.694 C 184.477 310.190,184.306 309.986,184.153 310.222 M226.731 310.385 C 226.075 310.666,226.132 310.715,227.115 310.715 C 227.750 310.715,228.615 310.566,229.038 310.385 C 229.694 310.103,229.638 310.054,228.654 310.054 C 228.019 310.054,227.154 310.203,226.731 310.385 M208.269 311.923 C 208.132 312.145,208.488 312.305,209.112 312.302 C 209.951 312.297,210.063 312.213,209.615 311.923 C 208.876 311.446,208.564 311.446,208.269 311.923 M230.962 311.923 C 230.831 312.135,231.090 312.308,231.538 312.308 C 231.987 312.308,232.246 312.135,232.115 311.923 C 231.985 311.712,231.725 311.538,231.538 311.538 C 231.352 311.538,231.092 311.712,230.962 311.923 M187.337 313.828 C 186.968 314.056,186.984 314.172,187.406 314.334 C 187.708 314.450,188.170 314.411,188.433 314.249 C 188.801 314.021,188.785 313.905,188.363 313.743 C 188.061 313.627,187.600 313.666,187.337 313.828 M390.085 315.453 C 389.827 315.712,389.615 316.081,389.615 316.275 C 389.615 316.930,386.778 319.231,385.970 319.231 C 385.529 319.231,384.265 320.092,383.161 321.145 L 381.154 323.060 381.154 326.338 C 381.154 328.866,381.275 329.615,381.684 329.615 C 381.975 329.615,382.451 329.957,382.742 330.374 C 383.212 331.050,383.768 331.139,387.885 331.197 L 392.500 331.261 394.712 329.025 C 396.309 327.410,396.923 326.499,396.923 325.747 C 396.923 325.023,397.162 324.643,397.706 324.500 C 398.441 324.308,398.482 324.043,398.379 320.129 L 398.269 315.962 395.000 315.734 C 393.202 315.608,391.466 315.388,391.143 315.244 C 390.820 315.101,390.344 315.195,390.085 315.453 M5.011 315.659 C 1.605 315.834,1.552 315.893,1.544 319.538 C 1.541 321.227,1.316 322.776,0.981 323.424 C 0.437 324.475,0.447 324.497,1.377 324.319 C 2.442 324.115,5.000 326.366,5.000 327.506 C 5.000 328.785,5.776 329.615,6.973 329.615 C 7.825 329.615,8.204 329.827,8.350 330.385 C 8.497 330.946,8.878 331.155,9.756 331.160 C 11.522 331.168,12.052 331.643,11.847 333.034 C 11.677 334.196,11.715 334.231,13.147 334.231 C 14.526 334.231,14.591 334.181,14.141 333.460 C 13.485 332.410,14.163 331.383,15.616 331.225 C 17.734 330.995,19.231 328.819,19.231 325.970 L 19.231 323.520 16.538 320.796 C 15.058 319.297,13.846 317.900,13.846 317.690 C 13.846 317.480,13.250 317.308,12.522 317.308 C 11.635 317.308,11.020 317.054,10.661 316.541 C 10.027 315.637,8.896 315.460,5.011 315.659 M192.115 317.692 C 192.246 317.904,192.592 318.077,192.885 318.077 C 193.177 318.077,193.523 317.904,193.654 317.692 C 193.789 317.473,193.458 317.308,192.885 317.308 C 192.311 317.308,191.980 317.473,192.115 317.692 M194.481 319.027 C 194.330 319.418,194.483 319.615,194.935 319.615 C 195.309 319.615,195.804 319.804,196.034 320.034 C 196.335 320.335,196.530 320.325,196.731 320.000 C 197.061 319.466,196.657 319.026,195.526 318.686 C 194.975 318.520,194.633 318.631,194.481 319.027 M201.147 322.312 C 200.539 322.688,200.721 322.792,202.765 323.239 C 203.624 323.426,204.639 322.915,204.173 322.530 C 203.749 322.179,201.611 322.025,201.147 322.312 M206.289 324.110 C 205.971 324.224,206.006 324.586,206.411 325.399 C 206.721 326.020,206.866 326.704,206.734 326.918 C 206.343 327.551,200.739 327.388,199.430 326.705 L 198.284 326.107 199.209 327.092 C 200.342 328.298,205.597 328.579,206.684 327.492 C 207.583 326.593,207.252 323.764,206.289 324.110 M234.273 324.696 C 234.082 325.198,233.649 325.839,233.309 326.121 C 232.970 326.402,232.698 326.828,232.704 327.066 C 232.710 327.305,232.892 327.197,233.108 326.827 C 233.323 326.457,233.817 326.154,234.205 326.154 C 234.804 326.154,235.084 325.708,235.403 324.240 C 235.550 323.560,234.552 323.963,234.273 324.696 M189.231 329.208 C 189.231 329.862,190.027 330.081,191.441 329.815 C 192.472 329.622,192.689 329.464,192.281 329.206 C 191.553 328.746,189.231 328.747,189.231 329.208 M185.385 331.154 C 186.867 331.629,187.658 331.629,186.923 331.154 C 186.606 330.949,185.913 330.796,185.385 330.813 L 184.423 330.846 185.385 331.154 M181.850 332.235 C 181.054 332.327,180.788 332.590,180.696 333.379 C 180.596 334.242,180.377 334.413,179.310 334.465 C 178.613 334.499,177.748 334.784,177.387 335.098 C 177.026 335.412,176.486 335.744,176.187 335.836 C 175.887 335.928,175.621 336.482,175.596 337.066 C 175.560 337.885,175.641 338.005,175.948 337.589 C 176.167 337.292,176.736 336.841,177.212 336.588 C 177.688 336.334,178.077 335.873,178.077 335.563 C 178.077 335.199,178.468 335.000,179.184 335.000 C 179.792 335.000,180.528 334.714,180.818 334.364 C 181.108 334.014,181.812 333.532,182.381 333.293 C 183.635 332.766,183.286 332.069,181.850 332.235 M173.558 339.372 C 172.153 340.818,171.828 341.584,173.177 340.270 C 174.167 339.305,175.164 338.075,174.951 338.081 C 174.872 338.083,174.245 338.664,173.558 339.372 M170.251 342.487 C 169.957 343.251,170.135 343.619,170.694 343.405 C 170.890 343.331,170.931 342.936,170.785 342.528 C 170.532 341.824,170.506 341.822,170.251 342.487 M168.344 345.673 C 168.158 346.620,168.593 347.709,168.987 347.282 C 169.529 346.695,169.628 344.615,169.114 344.615 C 168.804 344.615,168.458 345.091,168.344 345.673 M232.554 347.884 C 232.125 349.001,232.287 350.294,232.885 350.524 C 233.324 350.692,233.460 350.451,233.456 349.507 C 233.448 347.926,232.909 346.957,232.554 347.884 M166.956 349.231 C 166.944 349.760,167.103 350.452,167.308 350.769 C 167.797 351.526,167.797 350.177,167.308 349.038 C 167.005 348.334,166.975 348.350,166.956 349.231 M230.769 354.116 C 230.769 355.182,230.986 355.720,231.561 356.079 C 232.288 356.533,232.320 356.511,231.946 355.812 C 231.722 355.393,231.538 354.617,231.538 354.086 C 231.538 353.556,231.365 353.015,231.154 352.885 C 230.923 352.742,230.769 353.234,230.769 354.116 M165.352 355.192 C 165.291 355.615,165.195 358.471,165.140 361.538 C 165.085 364.606,165.025 367.462,165.006 367.885 C 164.987 368.308,165.022 369.078,165.082 369.597 C 165.178 370.421,165.029 370.550,163.909 370.612 C 163.203 370.651,162.482 370.832,162.307 371.014 C 161.767 371.577,161.390 375.769,161.879 375.769 C 162.147 375.769,162.308 374.903,162.308 373.462 L 162.308 371.154 163.607 371.154 C 165.300 371.154,166.035 370.313,165.456 369.041 C 165.221 368.526,165.169 368.018,165.339 367.913 C 165.796 367.630,166.182 357.341,165.795 355.769 C 165.567 354.843,165.429 354.663,165.352 355.192 M229.109 358.365 C 229.018 358.524,229.082 359.000,229.252 359.423 C 229.522 360.095,229.565 360.058,229.588 359.135 C 229.615 358.091,229.435 357.802,229.109 358.365 M229.464 368.801 C 228.812 369.522,228.945 371.760,229.616 371.346 C 229.849 371.202,230.375 368.077,230.166 368.077 C 230.140 368.077,229.824 368.403,229.464 368.801 M230.798 372.280 C 230.388 372.541,230.533 372.660,231.375 372.756 C 232.200 372.850,232.533 373.115,232.623 373.750 C 232.743 374.598,233.106 374.843,233.564 374.385 C 233.847 374.102,233.067 372.308,232.662 372.308 C 232.502 372.308,232.140 372.223,231.858 372.119 C 231.577 372.016,231.100 372.088,230.798 372.280 M215.385 376.306 C 215.385 376.722,215.692 376.773,216.761 376.532 C 218.743 376.085,218.836 375.769,216.987 375.769 C 215.873 375.769,215.385 375.933,215.385 376.306 M220.000 377.692 C 220.000 378.156,222.959 378.156,224.038 377.692 C 224.582 377.459,224.103 377.354,222.404 377.335 C 221.040 377.319,220.000 377.474,220.000 377.692 M172.885 379.605 C 172.415 379.801,174.509 379.977,178.269 380.059 C 184.705 380.198,185.517 380.141,185.167 379.575 C 184.901 379.144,173.929 379.170,172.885 379.605 M185.849 381.250 C 185.531 381.633,188.014 381.731,198.051 381.731 C 208.129 381.731,210.798 381.837,211.383 382.260 C 211.786 382.550,211.630 382.334,211.036 381.779 L 209.957 380.769 198.103 380.769 C 189.088 380.769,186.152 380.884,185.849 381.250 M213.004 381.809 L 212.182 382.683 213.783 381.910 C 215.607 381.028,215.687 380.934,214.605 380.934 C 214.176 380.934,213.456 381.328,213.004 381.809 " stroke="none" fill="#fccc9c" fill-rule="evenodd"></path><path id="path1" d="M184.615 308.077 C 184.615 310.677,185.327 312.308,186.461 312.308 C 186.630 312.308,187.467 312.979,188.322 313.800 C 189.176 314.621,190.249 315.412,190.707 315.557 C 191.164 315.702,191.538 315.980,191.538 316.175 C 191.538 316.369,192.101 316.799,192.788 317.131 C 195.360 318.371,196.749 319.239,197.369 319.993 C 197.721 320.420,198.370 320.769,198.813 320.769 C 199.256 320.769,200.264 321.115,201.053 321.538 C 201.843 321.962,202.801 322.308,203.183 322.308 C 206.551 322.308,209.067 326.787,206.296 327.851 C 204.743 328.447,200.123 328.082,199.423 327.308 C 198.440 326.222,197.308 326.300,197.308 327.453 C 197.308 327.956,197.091 328.540,196.827 328.750 C 196.270 329.194,190.027 330.155,189.717 329.845 C 189.602 329.730,189.000 330.065,188.379 330.588 C 187.757 331.111,186.921 331.538,186.520 331.538 C 185.614 331.538,181.415 333.645,180.768 334.424 C 180.505 334.741,180.105 335.000,179.877 335.000 C 178.470 335.000,172.015 340.995,170.906 343.333 C 170.571 344.038,170.157 344.615,169.987 344.615 C 169.816 344.615,169.555 345.178,169.406 345.865 C 169.257 346.553,168.810 347.575,168.414 348.136 C 168.017 348.698,167.692 349.502,167.692 349.923 C 167.692 350.344,167.356 351.788,166.945 353.133 C 166.420 354.850,166.118 357.383,165.928 361.646 C 165.779 364.985,165.516 367.803,165.343 367.910 C 165.170 368.017,165.221 368.526,165.456 369.041 C 165.913 370.045,165.378 371.154,164.436 371.154 C 162.625 371.154,161.929 375.494,163.670 375.931 C 164.207 376.066,164.555 376.325,164.443 376.506 C 163.874 377.427,165.400 377.759,166.123 376.872 C 166.848 375.982,166.894 375.976,168.144 376.608 C 168.847 376.964,169.856 377.374,170.385 377.519 C 170.913 377.664,171.667 378.066,172.058 378.411 C 172.639 378.922,173.897 379.061,178.849 379.161 C 184.278 379.270,185.000 379.362,185.600 380.026 C 186.237 380.730,186.899 380.769,198.107 380.769 L 209.941 380.769 211.065 381.715 L 212.188 382.660 213.450 381.358 C 214.615 380.156,214.691 379.924,214.451 378.322 C 214.061 375.723,216.693 374.811,219.554 376.555 C 220.653 377.225,221.739 377.372,227.093 377.573 L 233.349 377.808 233.611 376.765 C 233.892 375.645,231.991 372.692,230.989 372.692 C 230.130 372.692,229.108 371.186,229.062 369.851 C 229.037 369.137,228.821 368.316,228.581 368.027 C 227.437 366.641,227.371 363.152,228.442 360.577 C 228.618 360.154,228.963 359.063,229.210 358.153 C 229.457 357.243,229.908 356.402,230.214 356.285 C 230.569 356.149,230.769 355.521,230.769 354.549 C 230.769 353.057,231.304 351.575,232.008 351.114 C 232.203 350.987,232.440 349.602,232.536 348.037 C 232.631 346.473,232.905 344.591,233.144 343.855 C 233.687 342.184,233.664 335.647,233.108 333.849 C 232.362 331.437,232.572 326.767,233.462 325.962 C 233.885 325.579,234.231 325.037,234.231 324.757 C 234.231 324.477,234.663 323.965,235.192 323.618 C 235.830 323.201,236.154 322.634,236.154 321.936 C 236.154 321.358,236.332 320.373,236.550 319.747 C 237.074 318.244,236.237 316.212,234.533 314.852 C 233.838 314.296,233.010 313.605,232.692 313.316 C 232.375 313.027,231.686 312.657,231.161 312.495 C 230.637 312.332,229.713 311.834,229.110 311.388 C 228.129 310.663,227.442 310.570,222.639 310.510 C 219.143 310.467,217.073 310.284,216.714 309.986 C 216.126 309.498,215.948 309.735,215.692 311.346 C 215.608 311.879,215.217 312.155,214.420 312.244 C 213.787 312.314,212.966 312.645,212.595 312.978 C 211.778 313.711,209.365 313.077,207.717 311.695 C 207.174 311.241,206.167 310.746,205.478 310.595 C 204.151 310.306,203.462 309.439,203.462 308.060 L 203.462 307.222 202.775 308.070 C 202.398 308.536,201.662 308.914,201.141 308.911 C 199.085 308.898,196.527 308.334,196.081 307.796 C 195.495 307.090,195.336 306.154,195.803 306.154 C 195.996 306.154,196.154 305.981,196.154 305.769 C 196.154 305.530,193.974 305.385,190.385 305.385 L 184.615 305.385 184.615 308.077 " stroke="none" fill="#fc9c34" fill-rule="evenodd"></path></g></svg>